<svg xmlns="http://www.w3.org/2000/svg" width="2048" height="1024" display="block"><path fill="#5d1a0f" d="M998.91 830.27c-49.98-10.508-89.262-49.948-100.45-100.86-3.388-15.414-4.344-27.204-3.767-46.424.587-19.539 2.102-30.549 6.696-48.688 3.096-12.223 7.77-26.994 8.945-28.266.39-.421 3.483 1.462 6.876 4.184 3.392 2.723 7.534 5.757 9.203 6.743s2.829 2.254 2.575 2.816c-16.082 35.68-19.236 73.513-9.09 109.02 3.499 12.246 14 33.175 21.829 43.5 12.952 17.084 29.65 30.816 45.629 37.521 13.062 5.482 20.943 6.99 36.054 6.898 12.36-.075 14.314-.35 23.139-3.262 16.24-5.357 30.422-16.536 36.776-28.99 3.944-7.731 6.361-17.95 5.673-23.985-.356-3.125-.877-7.676-1.157-10.114-1.003-8.721-9.591-22.078-18.314-28.48-2.764-2.03-7.859-4.894-11.322-6.366-5.685-2.416-7.508-2.677-18.796-2.698-12.377-.023-12.576.013-20.266 3.685-9.048 4.32-17.203 11.562-21.115 18.75-3.772 6.932-5.813 17.212-4.543 22.88 1.35 6.023 1.935 6.957 10.501 16.782 4.12 4.725 8.38 10.334 9.467 12.464l1.975 3.873-2.73-1.039c-5.532-2.102-14.14-7.156-16.612-9.75-4.5-4.724-9.344-13.89-10.689-20.225-2.734-12.885 1.835-26.425 12.88-38.168 18.052-19.19 49.961-23.2 73.74-9.266 5.697 3.34 12.392 9.277 12.392 10.991 0 .698 1.096 1.987 2.436 2.865 3.325 2.179 9.272 14.617 11.06 23.134 8.178 38.953-16.383 72.952-58.47 80.936-11.227 2.13-29.153 1.922-40.525-.469zm20.834-39.574c-1.741-.859-3.857-2.986-4.702-4.727-1.476-3.044-1.449-3.19.707-3.774 4.315-1.169 8.636.209 11.2 3.572 3.481 4.563 3.241 6.541-.79 6.513-1.787-.013-4.674-.725-6.415-1.584m10.603-3.456c-2.59-2.59-2.092-4.194 1.644-5.305 1.605-.477 3.736-1.287 4.735-1.8 2.271-1.166 9.183 1.965 9.183 4.159 0 1.944-6.107 4.9-10.25 4.96-1.999.03-4.043-.745-5.312-2.014m14.312-7.6c-2.159-.87-1.384-2.8 2.742-6.829 12.514-12.22 8.71-32.788-7.471-40.393-9.14-4.296-17.362-4.034-24.532.782-12.467 8.373-14.287 22.9-4.14 33.047 9.772 9.772 23.323 8.56 30.33-2.711 3.371-5.422 3.302-15.446-.14-20.471-2.002-2.92-7.439-6.761-9.573-6.761-.256 0 1.232 1.698 3.308 3.774 7.116 7.116 7.784 16.602 1.604 22.782-10.623 10.623-28.371 3.592-28.376-11.24 0-10.877 7.638-18.315 18.817-18.315 5.923 0 10.596 1.47 14.952 4.705 4.535 3.367 6.2 6.244 7.63 13.176 3.19 15.483-7.501 27.529-24.4 27.49-15.035-.034-25.597-9.474-26.756-23.915-.88-10.975 5.473-25.456 11.17-25.456 1.658 0 3.706-1.56 6.63-5.052 4.633-5.535 8.178-6.41 8.78-2.167l.323 2.281 5.298-3.031c2.914-1.667 5.83-3.031 6.479-3.031s1.646 1.337 2.216 2.97c1.037 2.975 2.057 3.416 9.85 4.26 1.37.148 2.577.945 2.683 1.77 1.07 8.293 1.268 8.665 5.225 9.85 5.616 1.683 6.879 3.564 4.779 7.12-2.358 3.99-2.125 5.577 1.573 10.74l3.25 4.535-2.478 1.628c-4.536 2.978-5.72 4.79-6.38 9.765-.955 7.2-2.822 9.38-7.949 9.283-2.306-.043-4.755-.306-5.443-.583zm-99.948-52.838c-3.361-2.355-3.862-6.857-1.234-11.108 2.032-3.288 2.535-3.555 5.723-3.037 4.334.703 8.21 4.204 8.21 7.416 0 1.332-.773 3.728-1.716 5.326-1.383 2.34-2.407 2.904-5.278 2.904-1.959 0-4.526-.676-5.705-1.501zm-435.8-26.974c-13.067-2.417-23.396-7.49-32.222-15.828-10.828-10.23-14.864-20.287-14.028-34.952.434-7.605 1.024-9.915 4.15-16.24 6.024-12.19 17.094-20.058 31.678-22.518 17.71-2.988 33.61 8.108 35.585 24.832 1.583 13.412-7.95 22.048-15.74 14.258-3.586-3.586-3.916-8.937-.86-13.948 1.831-3.005 2.42-3.313 5.407-2.828 4.15.674 4.667.195 3.405-3.154-1.347-3.573-6.597-8.929-10.875-11.094-7.375-3.731-19.7-3.236-28.345 1.138-5.737 2.903-12.48 10.182-15.388 16.61-3.742 8.271-4.28 20.518-1.256 28.542 4.605 12.217 16.181 22.32 31.287 27.308 7.062 2.331 9.869 2.71 20.202 2.723 9.97.013 13.1-.371 18.5-2.272 19.118-6.729 32.27-22.719 35.195-42.789 2.37-16.26-3.73-34.04-15.38-44.826-7.194-6.66-17.43-11.759-35.815-17.843-7.425-2.457-19.668-6.757-27.208-9.556s-14.072-5.09-14.517-5.09-.827 2.588-.849 5.75c-.067 9.772-6.014 19.18-16.719 26.449l-6.023 4.09.577-10.937c.622-11.796 2.956-20.568 7.304-27.456l2.491-3.947-6.104-3.724c-12.94-7.897-26.32-17.181-34.087-23.653-4.451-3.71-8.404-6.368-8.783-5.908-.38.46-3.315 4.11-6.523 8.114-3.208 4.002-10.27 11.498-15.696 16.657l-9.864 9.378v10.927l6.25 1.226c3.438.674 7.729 1.841 9.536 2.594 5.694 2.371 18.807 13.272 24.96 20.748 6.173 7.503 13.254 17.615 13.254 18.93 0 1.177-17.252.901-23.2-.372-11.835-2.532-22.582-10.027-28.3-19.734-1.65-2.8-3.302-5.101-3.67-5.112-.369-.011-.974 1.443-1.344 3.23-1.246 6.01-7.685 21.186-12.327 29.055-6.565 11.126-16.24 21.193-26.023 27.077-10.377 6.24-18.862 8.618-30.758 8.618-11.228 0-18.843-2.167-32.877-9.356-5.5-2.818-10.372-5.29-10.827-5.492-.455-.203.729 1.817 2.63 4.49 5.986 8.414 7.978 13.322 8.463 20.858.436 6.78-1.702 17.724-3.704 18.961-1.552.96-12.616-11.21-15.446-16.992-3.31-6.757-3.75-15.134-1.178-22.346.859-2.406 1.561-4.533 1.561-4.727s-4.473 2.58-9.94 6.162c-18.321 12.004-29.21 15.776-45.56 15.783-9.399 0-12.164-.396-18.99-2.742-15.651-5.38-27.752-14.971-35.855-28.42-4.718-7.828-9.823-20.8-11.21-28.482l-.687-3.803 5.718 5.995c10.682 11.199 23.4 18.683 42.524 25.023 39.412 13.066 75.374 4.845 114.01-26.064l3.314-2.652-10.048 2.821c-17.71 4.972-28.533 6.3-46.624 5.717-13.19-.424-18.074-1.019-26.65-3.245-21.36-5.547-36.39-13.896-49.258-27.364-16.982-17.775-24.587-38.326-23.462-63.396.659-14.671 2.662-22.167 9.761-36.535 4.386-8.876 6.503-11.77 15.25-20.851 19.897-20.66 40.708-31.335 70.2-36.015 17.73-2.814 49.984-.756 65.538 4.18 4.2 1.333 1.04-1.303-11.797-9.845-21.785-14.496-43.408-24.635-59.92-28.096l-6.7-1.404-7.45 6.958c-13.468 12.577-32.649 22.383-49.544 25.33-10.039 1.75-13.935 1.234-16.639-2.204-3.477-4.42-.054-11.835 10.191-22.072 11.03-11.022 24.905-16.137 43.83-16.158 28.33-.03 52.192 9.399 92.772 36.662 22.41 15.056 26.16 17.32 28.69 17.32 1.24 0 1.007-.878-1.127-4.25-4.284-6.77-12.327-24.577-14.088-31.189-2.492-9.357-2.232-27.222.525-36.154 2.527-8.186 10.116-20.368 15.777-25.325 6.676-5.846 14.996-10.684 22.623-13.156 10.236-3.317 27.295-3.322 36.828-.013 10.38 3.605 18.02 8.144 24.55 14.586 11.092 10.943 16.068 23.257 15.232 37.694-1.63 28.16-32.355 46.634-58.124 34.95-11.112-5.038-20.011-15.904-21.38-26.1-.719-5.366.208-8.389 3.84-12.526 2.654-3.022 3.708-3.518 7.485-3.518 6.953 0 10.344 4.776 9.05 12.744-.776 4.784-3.657 7.543-8.037 7.695-4.8.167-5.192.894-2.672 4.97 5.274 8.533 15.71 13.83 27.52 13.968 7.03.082 8.864-.297 14.659-3.03 8.902-4.2 14.198-9.223 18.117-17.188 2.91-5.914 3.258-7.538 3.25-15.142-.01-7.753-.344-9.22-3.729-16.326-15.061-31.626-60.757-39.183-86.08-14.235-9.693 9.549-14.681 22.168-14.681 37.137 0 14.21 2.128 23.185 8.578 36.172 8.35 16.815 14.63 22.93 39.422 38.38 10.725 6.684 26.36 17.036 34.745 23.004s15.636 10.85 16.114 10.85c.477 0 2.88-4.162 5.34-9.25 16.285-33.682 41.668-60.746 68.3-72.821 17.9-8.116 34.168-11.314 57.5-11.302 19.2.01 33.414 1.868 52.5 6.862 31.261 8.18 58.284 19.234 108.12 44.224l35.116 17.61 6.227-4.79c3.425-2.636 8.735-7.126 11.8-9.98l5.573-5.187-14.416-5.295c-23.333-8.572-48.65-18.953-59.916-24.57-5.775-2.878-11.625-5.568-13-5.977-5.611-1.669-39.029-16.504-62-27.526-29.15-13.986-44.128-20.034-59.278-23.937-35.835-9.233-73.42-5.68-94.882 8.97l-6.03 4.116.665-3.323c1.197-5.975 8.284-19.606 12.7-24.429 6.11-6.67 17.126-13.568 26.75-16.749 21.995-7.269 41.297-4.734 62.925 8.265 8.157 4.903 21.144 15.198 26.649 21.126 6.83 7.355 17.67 14.846 30.92 21.37 7.558 3.72 13.937 6.57 14.175 6.331s-.662-2.414-2.001-4.835c-4.205-7.602-5.93-15.408-5.272-23.862.743-9.559 2.69-18.04 4.14-18.04 1.69 0 8.8 7.792 12.773 14 5.756 8.994 7.057 14.457 6.633 27.855l-.369 11.626 10.646 4.509c5.856 2.48 14.405 6.055 19 7.944s13.232 5.602 19.194 8.25 10.963 4.815 11.113 4.815-1.214-3.69-3.033-8.2c-4.691-11.635-6.002-20.305-4.583-30.3 4.39-30.9 36.666-51.719 66.72-43.038 15.243 4.403 29.936 15.858 35.764 27.881 10.812 22.306 5.24 46.6-16.458 71.76-4.89 5.67-8.757 10.713-8.593 11.205s4.558 2.37 9.764 4.173 16.891 5.853 25.966 9c9.075 3.145 19.65 7.167 23.5 8.936l7 3.217 5.5-1.906c3.025-1.049 11.52-3.452 18.877-5.34 7.358-1.887 14.062-3.815 14.898-4.283 1.14-.638-.511-1.908-6.592-5.072-9.373-4.876-15.734-10.158-21.29-17.679-4.547-6.156-5.58-8.545-7.396-17.12-1.659-7.83-.56-12.93 2.976-13.818 3.361-.843 5.627.081 12.385 5.057 10.113 7.445 20.207 24.042 23.743 39.04 1.224 5.19 2.24 7.473 3.472 7.795.958.25 5.946.016 11.084-.52 17.116-1.788 29.682.056 43.913 6.442 6.076 2.727 25.93 14.835 25.93 15.814 0 .334-1.025 1.57-2.277 2.747l-2.278 2.14-5.472-2.557c-3.01-1.407-10.197-4.157-15.972-6.112-13.113-4.438-26.642-5.538-34.797-2.83-9.306 3.09-14.73 11.887-12.592 20.423.872 3.487 1.21 3.689 17.89 10.681 19.505 8.177 23.5 10.13 23.5 11.49 0 4.248-30.781-7.258-75.605-28.26l-20.105-9.42-4.957 2.188c-2.726 1.203-6.729 2.734-8.895 3.402-5.4 1.666-28.386 11.442-28.415 12.085-.04.906 19.867 11.598 36.977 19.859 24.402 11.782 46.736 19.295 76.252 25.653l7.752 1.67-6.515 12.298-4.647-.154c-5.595-.185-27.32-6.6-45.832-13.533-16.398-6.141-38.046-16.38-54.369-25.717-6.678-3.82-15.045-8.53-18.593-10.467l-6.45-3.522-13.783 7.196c-7.58 3.958-13.79 7.432-13.799 7.719s2.84 1.064 6.333 1.726c11.249 2.134 17.637 5.164 23.812 11.294 7.92 7.863 10.488 17.139 7.87 28.43-.506 2.185-.83 4.062-.72 4.172s3.123-.482 6.695-1.316c9.883-2.309 22.042-1.427 28.91 2.097 16.092 8.253 26.116 26.437 24.834 45.048-.887 12.876-6.667 24.914-17.128 35.672-23.055 23.707-58.615 29.162-90.26 13.846-25.24-12.217-42.847-37.596-46.1-66.445l-.763-6.76-14.368.155c-29.296.316-58.62 2.419-70.873 5.082-5.442 1.182-7.983 2.977-4.215 2.977 3.277 0 19.863 5.777 24.957 8.693 8.35 4.78 15.278 10.75 21.677 18.675 7.077 8.766 12.982 18.678 13.92 23.368.916 4.582-2.716 6.706-9.82 5.744-24.62-3.334-54.118-20.828-63.175-37.47-2.166-3.98-2.817-6.58-2.942-11.765-.188-7.785-.47-7.974-12.16-8.155-3.85-.06-12.626-.775-19.5-1.59-6.876-.816-13.346-1.487-14.378-1.492-1.366-.01.056 2.026 5.223 7.465 31.974 33.661 17.207 86.131-27.455 97.554-8.774 2.244-18.535 2.412-28.891.498zm-228.51-20.966c-.016-4.179-2.25-12.213-4.763-17.126-2.153-4.213-5.225-7.517-5.225-5.621 0 1.037 2.56 13.752 3.56 17.688.28 1.1-.384.425-1.474-1.5s-2.528-5.863-3.194-8.75c-1.698-7.366-3.281-6.688-2.653 1.136.57 7.105 4.412 15.408 8.686 18.77 2.377 1.87 2.575 1.881 3.791.217.706-.965 1.278-3.132 1.272-4.814zm-55.769-14.487c8.536-2.184 21.659-8.46 29.693-14.203 6.083-4.349 5.782-4.48-5.365-2.347-31.971 6.117-63.29-.263-88.703-18.07-4.315-3.024-7.845-5.193-7.845-4.82 0 1.54 7.22 13.27 11.441 18.587 9.026 11.371 23.014 19.822 36.56 22.09 6.521 1.092 17.256.544 24.22-1.237zm584.57-.592c4.774-.941 11.324-3.313 17.208-6.232 19.849-9.847 32.038-27.322 32.259-46.248.15-12.857-4.924-24.58-13.739-31.74-6.844-5.56-13.487-8.408-21.022-9.013-7.248-.581-8.958.155-21.873 9.421-6.982 5.009-9.17 6.124-10.25 5.227-2.199-1.825-1.664-4.063 3.344-14.008 6.268-12.447 6.837-18.89 2.345-26.574-5.134-8.784-13.796-13.525-27.166-14.87-14.08-1.418-26.505 3.176-35.978 13.303-8.67 9.27-14.52 22.133-17.318 38.091l-.585 3.337 4.243-.672c11.76-1.86 18.78-3.796 25.906-7.14 4.31-2.022 7.836-3.84 7.836-4.04s-1.2-2.178-2.667-4.394q-5.355-8.093-.014-17.209c6.728-11.48 23.701-10.774 23.671.986-.042 16.277-22.535 32.124-51.398 36.211-3.743.53-6.918 1.104-7.056 1.274-1.06 1.31 1.852 15.128 4.911 23.31 5.624 15.038 9.189 21.002 17.58 29.407 18.7 18.73 44.2 26.614 69.765 21.574zm-31.471-36.669c-1.198-.58-2.707-2.329-3.353-3.888-.977-2.358-.862-3.475.679-6.63 1.572-3.218 2.4-3.839 5.464-4.095 2.729-.228 4.379.344 6.75 2.339 3.853 3.242 4.014 6.27.55 10.386-2.74 3.255-6 3.865-10.09 1.888zm-448.12 30.343c18.166-5.037 33.564-19.423 44.586-41.654 6.734-13.58 6.459-13.906-3.633-4.305-11.256 10.709-18.984 16.287-30.652 22.127-16.23 8.122-29.58 11.05-50.75 11.128-7.562.028-13.75.119-13.75.202 0 .513 8.066 4.747 14.234 7.472 15.612 6.896 27.736 8.422 39.965 5.031zm344.18-11.404c-9.277-15.718-22.491-29.94-32.887-35.396-9.225-4.842-27.868-9.388-25.982-6.335.346.56 2.96 2.197 5.809 3.637 9.633 4.87 21.584 13.396 29.4 20.974 6.634 6.432 7.19 7.21 3.779 5.28-2.2-1.245-9.697-6.234-16.659-11.087-6.963-4.853-12.917-8.824-13.232-8.824s-3.541-1.817-7.17-4.037l-6.595-4.038 1.828 3.105c9.233 15.676 29.108 29.946 49.491 35.535 9.732 2.668 13.297 3.014 12.217 1.185zm-372.91-7.267c35.593-4.666 65.418-22.692 76.081-45.983 3.154-6.89 6.836-19.444 5.96-20.321-.886-.886-6.62 2.15-15.238 8.071-4.826 3.316-15.81 9.73-24.41 14.254-17.365 9.137-19.823 10.761-32.362 21.387-4.798 4.066-13.735 10.974-19.862 15.352s-11.328 8.14-11.557 8.359c-.944.901 10.567.3 21.389-1.12zm133.52-21.233c-.01-2.037-4.935-8.334-11.902-15.217-5.817-5.747-10.032-8.832-16.96-12.41-5.07-2.619-9.72-4.595-10.331-4.391-.612.204 4.58 5.488 11.537 11.742s12.444 11.576 12.193 11.826-3.92-1.705-8.156-4.345c-7.902-4.925-13.552-9.923-19.164-16.956l-3.193-4 1.392 4.098c5.067 14.917 15.448 24.638 30.507 28.57 6.911 1.804 14.084 2.356 14.077 1.083zm-167.31-9.532c.901-.577.813-1.664-.364-4.482-1.12-2.677-1.43-5.872-1.11-11.399.714-12.332 6.777-20.79 19.5-27.206 5.388-2.716 8.747-3.308 9.733-1.713.312.505-2.699 5.343-6.69 10.75-3.993 5.408-8.956 12.427-11.03 15.598-3.496 5.346-7.729 14.531-7.729 16.771 0 1.832 7.43.949 21.77-2.586 33.031-8.143 63.762-23.724 90.996-46.136 1.242-1.022 1.023-2.852-1.583-13.23-4.915-19.58-12.315-32.606-22.962-40.422-2.743-2.015-5.203-3.663-5.465-3.663s-.256 4.22.014 9.377c.448 8.565.264 9.871-2.126 15.09-3.57 7.8-12.22 16.05-22.358 21.323-4.45 2.315-8.36 4.21-8.689 4.21-.328 0-.59-2.588-.58-5.75.042-13.761 6.163-30.251 14.561-39.23l4.696-5.02-3.387.01c-10.897.019-31.948 4.932-40.887 9.543-4.952 2.554-16 12.387-16 14.24 0 .644 1.863 2.12 4.139 3.282 6.207 3.167 13.286 10.836 17.23 18.669l3.516 6.982-8.692.64c-9.715.716-19.568-.55-25.82-3.315l-4.14-1.83-.682 6.028c-.871 7.706-3.357 14.276-9.121 24.113l-4.605 7.857-3.354-4.98c-5.965-8.858-9.565-16.73-10.712-23.429l-1.122-6.552-3.115 1.302c-5.23 2.185-18.904 4.578-24.297 4.253l-5.097-.308 2.686-6.28c3.22-7.527 9.993-16.96 14.16-19.72 3.51-2.325 3.864-4.1 1.002-5.008-6.37-2.022-24.686-24.182-22.114-26.755.85-.85 5.193-1.234 13.936-1.233 11.892 0 13.042.176 18.034 2.748 2.932 1.51 5.52 2.747 5.75 2.747s.424-1.462.432-3.25c.02-4.44 2.539-14.905 5.475-22.75 1.337-3.575 2.913-7.801 3.5-9.391l1.069-2.892 4.032 5.392c6.688 8.943 11.052 18.79 11.654 26.302.29 3.624.678 6.589.861 6.589s2.253-1.001 4.6-2.224c3.313-1.728 6.393-2.306 13.78-2.59 10.603-.407 15.015.693 15.015 3.744 0 1.932.154 1.922 6.312-.396 10.849-4.083 21.16-5.804 34.438-5.747 16.695.072 16.568-1.035-1.25-10.9-24.365-13.492-38.389-16.749-60-13.938-13.102 1.704-7.647-2.769 6.044-4.956 24.087-3.848 59.123 10.405 81.536 33.17 11.566 11.745 18.706 24.712 23.543 42.751l2.79 10.407 6.44-6.91c8.262-8.865 15.77-18.86 21.609-28.767 5.18-8.791 5.373-7.907-2.793-12.833-2.107-1.271-7.732-5.122-12.5-8.556-49.425-35.606-76.67-48.31-113.63-52.986-37.033-4.686-75.972 7.13-98.83 29.988-11.27 11.27-17.01 21.6-21.22 38.2-4.945 19.496-2.75 37.62 6.776 55.93 4.406 8.468 12.878 18.344 20.602 24.013 9.377 6.882 25.724 13.72 40.636 16.998 7.23 1.588 28.86 1.81 31.19.319zm-64.055-127.79c-3.91-3.076-3.567-7.312.936-11.56 4.498-4.24 9.308-4.58 12.974-.913 7.694 7.694-5.241 19.292-13.91 12.473zm270.19 110.24c3.235-6.07 5.19-14.168 3.42-14.168-.552 0-2.287 2.448-3.853 5.44s-2.999 5.291-3.182 5.108.401-2.859 1.298-5.946 1.487-6.365 1.31-7.286c-.302-1.564-.433-1.563-2 0-2.752 2.751-5.675 11.963-6.425 20.25l-.704 7.764 3.525-2.688c1.939-1.479 4.914-5.295 6.611-8.48zm149.87.891c13.845-2.729 25.999-3.852 55.301-5.11 32.197-1.38 31.831-1.328 32.567-4.743 2.162-10.034 6.143-22 9.883-29.706 2.402-4.95 4.258-9.114 4.123-9.253s-8.756 3.161-19.159 7.332c-20.457 8.203-44.105 15.69-62.494 19.783-13.23 2.946-41.689 6.638-51.159 6.638-21.878 0-60.366-9.348-95.004-23.075-17.996-7.132-43.519-21.322-57.17-31.785-3.689-2.827-7.572-5.14-8.63-5.14-1.308 0-2.748 1.628-4.5 5.085-2.415 4.767-2.477 5.236-.989 7.507 6.398 9.764 54.128 36.825 79.682 45.177 16.725 5.467 38.05 10.628 56.35 13.64 12.883 2.12 20.627 3.066 40.5 4.94 8.048.76 11.341.555 20.7-1.29zm-368.63-21.409c5.004-9.315 6.32-18.403 3.603-24.903-2.033-4.866-4.595-4.872-8.594-.019-2.93 3.555-3.073 3.613-3.06 1.25.03-5.25 1.066-6.978 4.187-6.978 3.235 0 3.499-2.235.335-2.849-2.905-.563-6.526 1.977-9.114 6.393-3.322 5.669-4.017 11.906-2.067 18.554 1.832 6.249 8.676 18.284 9.76 17.162.403-.418 2.63-4.292 4.95-8.61zm376.44-4.027c22.752-4.327 54.794-13.575 75-21.646 17.121-6.84 40.676-18.308 72.344-35.224l9.344-4.991-17.344-8.96c-9.54-4.927-18.353-9.607-19.587-10.399-2.118-1.36-3.227-.782-20 10.423-38.383 25.641-70.843 42.056-103.02 52.096-28.458 8.88-44.292 11.393-72.443 11.5-23.104.087-23.219.28-3.094 5.173 17.6 4.28 27.357 5.32 46.802 4.994 14.396-.242 20.803-.836 32-2.965zm135.3-3.478c1.368-.868 4.2-9.165 4.2-12.304 0-1.507-.792-1.841-4.365-1.841-4.588 0-8.683 2.354-10.722 6.163-1.403 2.622-.776 3.116 2.418 1.901 2.192-.833 2.851-.643 4.139 1.195.842 1.202 1.53 2.986 1.53 3.963 0 1.938.79 2.198 2.8.923zm-538.45-12.181c5.482-2.059 8.831-5.475 12.59-12.843 3.822-7.492.59-9.427-6.74-4.036-3.298 2.425-4.198 2.736-4.198 1.45 0-.93 1.53-2.278 3.54-3.117 4.233-1.77 3.684-3.42-1.139-3.42-7.526 0-15.965 7.022-21.299 17.723-1.706 3.422-3.101 6.521-3.101 6.888 0 1.262 15.204-.714 20.348-2.645zm355.65-.366c11.906-2.522 25.004-6.386 32.409-9.56 4.125-1.768 4.375-2.14 7.51-11.184 3.942-11.377 10.411-23.836 16.454-31.69 23.5-30.54 70.627-44.873 70.627-21.48q0 12.834-16.79 32.131l-5.495 6.316 8.892-5.196c8.113-4.741 37.184-23.797 41.84-27.426 1.205-.94 1.586-1.862 1-2.423-1.278-1.22-60.159-30.572-73.947-36.86-30.776-14.035-54.667-22.153-79-26.842-13.033-2.511-42.027-2.539-53.344-.05-40.828 8.978-68.69 32.154-92.693 77.102-3.132 5.866-5.53 10.806-5.329 10.98s5.316 3.374 11.366 7.112 11.9 7.555 13 8.483c3.665 3.093 24.371 15.053 33.765 19.503 29.397 13.925 59.038 17.586 89.735 11.083zm2.286-23.093c-14.055-5.03-21.87-10.232-26.024-17.322l-2.638-4.503-1.562 2.41c-3.519 5.428-9.58 11.009-14.468 13.322-5.773 2.73-22.08 6.434-23.238 5.277-.98-.98 3.145-14.89 6.254-21.087 1.35-2.694 3.845-6.652 5.544-8.797s2.92-4.016 2.717-4.16c-.204-.143-3.509-1.775-7.344-3.626-5.065-2.444-9.52-5.829-16.277-12.366-5.117-4.95-8.948-9.356-8.513-9.792s4.15-1.497 8.257-2.361c9.936-2.09 23.66-1.49 30.716 1.345 2.865 1.151 5.42 1.752 5.678 1.335.257-.417 1.222-4.784 2.145-9.705 1.675-8.943 4.681-16.022 10.38-24.442l3.022-4.467 5.104 10.821c4.58 9.711 5.163 11.722 5.673 19.598l.569 8.777 4.593-2.032c5.846-2.586 15.556-3.285 25.084-1.806 4.102.637 7.63 1.33 7.84 1.54.879.878-8.056 12.57-13.2 17.271-4.718 4.313-9.401 6.845-16.361 8.848-.822.237.016 2.031 2.401 5.14 2.016 2.627 4.662 7.026 5.88 9.776 2.25 5.078 7.834 23.494 7.283 24.018-.165.158-4.447-1.198-9.514-3.011zm1.729-11.84c-4.702-12.953-9.06-19.962-14.12-22.709-2.618-1.422-11.895-4.96-11.895-4.537 0 .215 1.602 2.31 3.56 4.653 1.96 2.344 4.226 5.65 5.037 7.345 1.103 2.302-.051 1.443-4.56-3.396l-6.037-6.479v5.828c0 7.355 1.87 11.3 8.141 17.165 4.344 4.063 19.17 12.242 22.492 12.408.664.033-.422-4.227-2.618-10.278zm-52.507 4.905c11.9-3.575 17.018-10.427 20.962-28.07l.67-3-3.82 3.532c-2.101 1.943-4.918 4.418-6.26 5.5l-2.438 1.968 2.439-3.352c5.95-8.179 5.752-7.478 1.893-6.706-1.9.38-6.307 2.059-9.794 3.731-7.576 3.633-10.94 8.24-14.695 20.128-1.356 4.29-2.465 8.065-2.465 8.386 0 .84 7.655-.36 13.508-2.117zm8.544-32.151c3.822-.87 6.948-1.934 6.948-2.366s-3.397-2.025-7.548-3.539-7.339-2.962-7.083-3.217 3.882.473 8.059 1.618 8.136 2.084 8.799 2.084c2.326 0-9.782-11.114-14.776-13.562-2.95-1.446-7.75-2.728-11.543-3.082-6.537-.61-20.908 1.164-20.908 2.582 0 .959 10.304 10.744 15.192 14.43 3.593 2.707 11.987 6.492 14.61 6.586.716.026 4.429-.665 8.25-1.534zm42.511-3.48c5.735-2.725 18.436-14.264 18.436-16.748 0-1.556-16.839-2.49-22.352-1.239-7.09 1.609-10.203 3.531-13.43 8.298-4.683 6.915-4.801 7.196-2.632 6.278 5.498-2.327 14.414-5.437 14.414-5.027 0 .258-2.812 1.878-6.25 3.6-9.409 4.714-9.592 4.991-4.572 6.935 5.29 2.047 8.543 1.63 16.385-2.097zm-27.52-20.94c.202-12.235 1.702-8.285 1.898 5l.14 9.5 2.927-3.422c6.263-7.326 6.202-18.18-.187-32.937-3.66-8.453-3.526-8.494-9.276 2.86-3.904 7.707-5.835 15.89-4.929 20.889.74 4.08 3.807 10.69 6.251 13.468 1.557 1.77 1.666 1.676 2.326-2 .38-2.122.763-8.133.85-13.357zm-262.04 86.064c0-2.276-9.07-13.896-13.415-17.186-6.586-4.988-11.55-6.549-15.556-4.89-1.69.7-3.312 1.66-3.604 2.132s1.606 2.213 4.217 3.87c5.894 3.737 5.544 3.747-3.137.085-9.166-3.867-10.49-2.882-6.537 4.865 3.773 7.397 14.54 11.883 28.78 11.99 5.128.04 9.25-.346 9.25-.865zm34.533-10.098c6.727-4.958 11.29-10.308 14.005-16.42 2.44-5.49 4.002-13.547 2.628-13.547-.472 0-3.127 3.713-5.901 8.25-2.774 4.538-6.892 10.275-9.15 12.75l-4.105 4.5 3.55-6c5.622-9.503 10.439-20.2 10.439-23.184 0-2.7-.073-2.67-4.945 2.13-2.72 2.679-6.31 7.433-7.98 10.564-2.665 5.001-8.066 22.243-8.073 25.775-.003 1.631 2.49.371 9.532-4.819zm316-6.369c18.351-7.687 31.626-16.817 42.522-29.246 9.938-11.336 16.297-25.414 13.485-29.85-3.649-5.758-21.99-.751-38.539 10.52-12.178 8.294-25.459 25.387-32.618 41.98-2.56 5.933-2.635 5.994 5.588-4.483 10.021-12.768 32.034-31.384 44.89-37.963 5.497-2.814 2.851-.23-13.673 13.355-15.6 12.824-28.796 25.53-33.188 31.957-2.027 2.967-2.074 3.245-.399 2.346 1.045-.561 6.932-5 13.082-9.866 11.689-9.247 21.984-16.014 22.928-15.07.304.304-8.258 7.375-19.028 15.712s-19.581 15.38-19.581 15.653c0 .777 3.713-.511 14.532-5.043zm-407.61-9.008c1.342-1.616.462-2.444-4.35-4.089-5.073-1.734-4.354-3.5 1.425-3.5h5.167l-3.287-4.151c-4.76-6.01-10.841-9.493-18.964-10.863-6.665-1.124-16.916-.572-16.916.912 0 1.774 6.105 9.995 10.224 13.767 5.919 5.421 10.134 7.596 16.276 8.4 8.095 1.058 9.194 1.008 10.426-.476zm34.518-3.004c4.096-2.4 11.333-9.654 15.576-15.615l1.935-2.717-5.963-.675c-9.107-1.03-17.297.779-21.805 4.816-3.51 3.144-6.82 8.895-5.392 9.37.847.283.76.822-.305 1.887-.82.82-1.49 2.55-1.49 3.842 0 2.266.237 2.338 6.56 1.989 4.744-.263 7.757-1.064 10.883-2.897zm-12.985-2.652c-.844-1.366-.62-1.52 3.292-2.264 3.387-.645 4.092.089 2.05 2.131-1.488 1.487-4.459 1.562-5.342.133m-11.932.023c.355-.574.021-2.036-.742-3.25-1.499-2.382-.952-8.379.725-7.956.545.138 1.605 2.093 2.355 4.345l1.365 4.095 2.635-4.345c4.848-7.992 3.288-18.652-4.731-32.334l-3.51-5.99-2.32 5.113c-2.95 6.5-6.304 19.54-6.304 24.512 0 2.821 1.115 5.514 4.25 10.27 4.374 6.632 5.17 7.335 6.278 5.541zm651.9-21.206c.257-1.237.762-4.95 1.122-8.25.572-5.248 1.132-6.454 4.464-9.625 4.467-4.252 11.31-6.84 18.414-6.962 2.79-.048 7.322-.407 10.072-.796l5-.709-5.3-1.204c-7.145-1.623-18.608-1.506-30.7.312-10.106 1.52-42.5 10.216-42.5 11.41 0 1.146 35.336 18.074 37.73 18.074.677 0 1.442-1.012 1.698-2.25zm-87.244-4.602c5.716-2.669 12.175-5.393 14.354-6.054 5.322-1.613 15.462-6.295 15.462-7.138 0-.729-23.739-10.554-46.566-19.274l-14.066-5.373-8.95 7.595c-4.922 4.178-10.482 8.793-12.354 10.255l-3.404 2.66 16.921 8.548c9.306 4.701 18.721 9.65 20.921 10.997s4.74 2.49 5.646 2.542 6.323-2.089 12.038-4.758zm72.741-38.289c-.63-1.178-4.133-6.098-7.785-10.933-6.133-8.122-12.868-18.926-11.798-18.926.396 0 15.58 16.851 21.626 24 3.05 3.606-4.293-11.107-9.02-18.074-4.363-6.43-9.332-11.06-14.935-13.919-2.162-1.103-4.147-2.006-4.409-2.006-.712 0 .288 6.678 2.064 13.779 1.604 6.412 7.147 16.028 11.441 19.85 1.985 1.767 12.721 8.33 13.678 8.361.157.01-.23-.954-.86-2.132zm-102.12-10.798c10.034-8.305 21.434-26.193 24.712-38.777 3.112-11.945 1.216-26.244-4.852-36.598-3.553-6.062-13.099-14.622-20.133-18.052-3.232-1.576-9.418-3.564-13.747-4.416-7.202-1.42-8.519-1.41-15.509.107-21.68 4.705-35.741 18.523-39.34 38.659-2.273 12.716 1.827 28.614 10.002 38.786 1.68 2.091 5.42 5.234 8.31 6.984 6.188 3.747 43.8 18.226 45.255 17.421.55-.304 2.936-2.155 5.303-4.114m-29.879-40.984c-4.321-4.322-4.135-10.065.477-14.677 3.824-3.824 6.923-4.29 12.122-1.823 10.304 4.89 6.389 19.423-5.233 19.423-3.576 0-5.012-.57-7.365-2.923zm-572.92 18.988c15.697-3.493 29.62-9.8 38.5-17.438 7.203-6.195 2.91-5.89-14.95 1.062-4.922 1.916-11.597 4.82-14.833 6.454-6.655 3.36-10.717 5.016-10.717 4.37 0-.241 2.758-2.311 6.129-4.6 7.419-5.038 17.395-9.676 29.112-13.535 4.806-1.583 8.744-3.282 8.75-3.776.015-1.373-15.61.126-24.198 2.323-4.18 1.07-9.934 3.127-12.786 4.572-8.537 4.326-17.26 13.421-19.427 20.253-.643 2.027-.385 2.248 2.603 2.228 1.825-.012 7.143-.873 11.817-1.913zm466-33.438c0-.205-.859-2.343-1.91-4.75-1.927-4.42-4.793-19.507-3.878-20.422.273-.272 2.396 4.577 4.719 10.775 6.335 16.902 5.722 15.837 6.577 11.444 1.524-7.839-1.51-17.346-9.604-30.1-2.746-4.327-3.25-4.706-4.138-3.119-.591 1.056-.827 6.291-.567 12.592.397 9.654.784 11.475 3.685 17.37 1.783 3.62 3.664 6.583 4.18 6.583s.936-.168.936-.373zm-161-27.662c11.856-4.326 25.24-6.224 43.5-6.169 16.907.051 29.12 1.925 49.955 7.662 4.926 1.356 9.108 2.313 9.294 2.127.555-.555-8.74-8.472-16.248-13.84-26.254-18.77-55.156-20.644-78.673-5.104-6.402 4.23-15.658 13.306-17.962 17.612-.962 1.798-.867 1.952.77 1.25 1.026-.44 5.24-2.033 9.365-3.538zm1020.5 340.01c-11.732-2.355-24.275-9.469-31.739-18-10.23-11.697-14.299-23.915-13.476-40.478.77-15.48 4.197-23.26 17.52-39.78 3.008-3.729 5.202-7.047 4.875-7.374-.328-.327-5.452-.087-11.387.532-5.936.62-17.178 1.126-24.983 1.125h-14.191l1.434 2.75c5.84 11.196-8.726 31.214-31.305 43.022-17.899 9.36-39.812 14.868-43.15 10.846-4.638-5.587 8.482-28.605 22.586-39.631 6.585-5.148 15.703-9.285 26.408-11.982 14.571-3.672 16.121-4.125 15.663-4.583-.653-.653-83.702-6.418-92.543-6.424-2.677 0-2.708.075-2.384 5.802.776 13.688-8.254 34.136-21.875 49.538-5.083 5.748-16.882 14.268-21.017 15.176-1.615.355-2.936 1.004-2.936 1.442 0 1.225-8.665 4.676-18.047 7.188-11.81 3.162-32.813 3.236-44.453.157-16.718-4.421-31.153-12.759-43-24.835-19.321-19.695-25.018-44.696-13.241-58.108 5.509-6.274 12.002-7.946 19.192-4.942 5.47 2.286 6.958 6.958 4.022 12.634-1.877 3.63-4.212 3.747-9.069.45-4.548-3.086-6.474-3.139-9.107-.25-5.645 6.192-5.575 16.933.184 28.28 9.584 18.881 27.505 33.37 50.018 40.44 8.83 2.772 30.348 3.9 39.748 2.082 8.074-1.56 24.43-8.933 32.338-14.576 20.646-14.732 32.355-39.017 31.088-64.476-1.075-21.615-9.488-41.75-20.928-50.087-3.667-2.672-4.89-3.034-8.972-2.653-8.657.81-16.763 8.312-16.77 15.522-.01 5.216 2.365 9.562 8.934 16.372 4.922 5.103 5.836 6.532 4.664 7.295-1.118.728-.383 1.322 3.15 2.542 2.535.876 4.768 2.07 4.963 2.654.606 1.82-11.987 12.71-18.25 15.78-4.702 2.306-7.723 3.02-14.272 3.378l-8.308.454 2.783 2.122c8.672 6.612 10.99 11.82 12.313 27.662.484 5.796.964 10.972 1.068 11.5.456 2.32-.28 2.339-3.835.095-2.083-1.315-6.64-3.831-10.126-5.591-8.805-4.445-15.418-10.935-19.115-18.76l-3.056-6.468-2.81 3.878c-3.66 5.052-8.607 9.163-13.607 11.306-4.345 1.862-23.403 5.428-24.287 4.544-1.13-1.13-.15-8.636 1.81-13.877 2.686-7.178 6.618-12.47 12.826-17.26 2.787-2.15 5.086-4.144 5.11-4.431.022-.288-1.616-1.413-3.642-2.5-6.262-3.361-12.733-10.593-18.79-21.001-3.194-5.487-7.182-11.44-8.863-13.227-3.318-3.53-2.812-3.813 4.006-2.239 2.293.53 8.779 1.655 14.414 2.501 10.69 1.606 16.759 3.75 20.82 7.355 1.321 1.173 2.722 2.133 3.112 2.133s1.21-2.497 1.823-5.55c1.511-7.525 3.343-11.08 9.291-18.036 2.782-3.253 5.999-7.813 7.149-10.133 2.51-5.064 3.398-4.622 7.044 3.503 6.408 14.278 7.33 25.66 2.803 34.634-2.182 4.325-2.483 5.532-1.25 5 7.393-3.182 18.184-4.19 26.875-2.508 2.36.456 4.25.437 4.25-.044 0-.477-.35-.866-.78-.866-1.844 0-8.72-7.91-10.865-12.5-4.562-9.764-2.474-17.528 7.013-26.076l6.131-5.524-3.5-3.005c-1.925-1.653-11.283-6.897-20.796-11.652-15.648-7.823-17.553-8.54-20-7.524-1.487.618-8.329 3.585-15.204 6.593s-17.675 7.245-24 9.415-13.019 4.881-14.876 6.025c-6.392 3.938-42.959 18.176-65.624 25.552-47.748 15.54-90.704 20.626-136.07 16.11-8.76-.87-16.1-1.757-16.313-1.968-.544-.542 2.065-4.14 7.12-9.82l4.337-4.875 14.465 1.627c22.058 2.48 38.935 3.01 53.465 1.68 34.946-3.2 68.075-11.77 112.62-29.134 10.108-3.94 22.826-8.712 28.263-10.605 16.635-5.792 38.909-16.034 38.015-17.48-1.43-2.314-14.985-7.732-30.65-12.249-8.71-2.512-8.762-2.515-12-.615-1.788 1.05-12.701 6.262-24.251 11.583-60.004 27.643-94.483 37.761-139.63 40.977-9.635.687-23.867-.824-23.867-2.534 0-1.208 11.486-2.795 28.627-3.955 31.678-2.144 64.564-10.284 96.84-23.973 14.918-6.327 15.273-6.648 13.6-12.278-1.69-5.696-8.283-11.944-15.722-14.904-5.09-2.025-7.588-2.327-19.344-2.345-15.797-.024-21.183 1.24-42.466 9.96-14.577 5.972-17.923 6.807-12.516 3.122 1.915-1.305 7.757-5.587 12.982-9.516 18.598-13.985 34.167-19.364 55.973-19.337 6.89.01 15.398.543 18.909 1.189 4.324.795 6.71.845 7.398.156.56-.56 1.354-4.977 1.765-9.818.772-9.078 2.4-14.175 7.286-22.802 4.835-8.536 21.32-19.948 27.9-19.314 3.61.348 3.665.643 2.472 13.48-1.248 13.437-12.876 28.041-29.616 37.196l-5.217 2.853 6.315 1.2c10.824 2.058 24.926 6.024 30.81 8.665l5.642 2.532 25.931-10.456c32.542-13.122 37.431-15.29 37.431-16.592 0-.577-3.421-4.764-7.603-9.305-13.121-14.248-18.66-26.32-20.214-44.045-.944-10.764.16-15.655 6.457-28.633 7.147-14.728 17.632-23.511 32.943-27.596 8.74-2.333 24.282-2.124 32.49.437 19.385 6.046 34.412 24.102 35.613 42.789.94 14.618-2.05 27.55-8.362 36.175-1.727 2.36-1.72 2.376.716 1.647 1.354-.406 9.886-4.235 18.961-8.51s22.476-10.368 29.78-13.541 13.512-6.144 13.796-6.603c.284-.46-.443-2.132-1.615-3.717-1.592-2.153-2.268-4.89-2.675-10.821-.93-13.575 3.36-23.392 13.463-30.804 7.305-5.359 9.263-4.609 10.704 4.102.986 5.95-1.064 19.296-3.466 22.572-1.092 1.49-1.988 3.515-1.99 4.5 0 .985-.896 3.253-1.985 5.04-1.353 2.22-1.584 3.25-.728 3.25 2.186 0 28.116-12.494 33.781-16.276 2.99-1.996 10.47-7.875 16.621-13.065 23.827-20.1 43.347-28.659 65.368-28.659 11.283 0 19.045 1.926 29.357 7.281 13.935 7.238 26.134 22.046 27.887 33.853l.54 3.634-4.319-2.413c-19.805-11.07-59.744-15.962-85.457-10.47-20.895 4.464-39.977 11.923-79.56 31.099-46.19 22.376-99.483 46.022-125.5 55.684l-11.358 4.218c-1.538.571-.897 1.327 3.744 4.408 3.08 2.045 8.461 6.145 11.958 9.112l6.357 5.393 7.4-3.241c4.07-1.783 12.877-6 19.574-9.37 29.914-15.056 73.726-33.62 98.111-41.573 28.794-9.39 45.397-12.585 69.213-13.319 18.266-.563 25.861.142 40.4 3.75 32.26 8.007 61.85 32.768 78.983 66.094 2.443 4.752 5.579 10.376 6.968 12.5s2.828 5.099 3.196 6.611 1.089 2.75 1.601 2.75c1.718 0 8.273-3.804 18.404-10.679 20.23-13.728 27.172-18.199 37.948-24.438 27.212-15.756 44.576-43.166 44.586-70.383.01-21.797-10.095-39.007-28.086-47.843-17.547-8.617-35.74-8.632-52.085-.043-8.342 4.384-14.43 10.022-19.809 18.344-12.533 19.391-5.297 43.933 15.894 53.906 4.755 2.238 6.855 2.592 15.5 2.613 9.117.022 10.411-.218 14.651-2.71 4.434-2.607 12.85-11.07 12.85-12.925 0-.481-1.986-2.78-4.412-5.109-6.88-6.601-7.557-15.147-1.453-18.304 4.172-2.157 8.773-1.178 12.44 2.649 2.588 2.702 2.924 3.763 2.924 9.237 0 7.656-2.69 13.542-9.685 21.196-15.434 16.887-41.943 16.345-58.982-1.205-13.029-13.42-15.393-33.159-6.076-50.732 3.977-7.5 15.43-18.436 23.402-22.345 37.461-18.368 80.274.403 88.426 38.77 4.043 19.026-.524 38.934-13.727 59.843-2.203 3.489-3.798 6.55-3.544 6.804.903.904 12.917-4.627 19.001-8.747 3.402-2.304 10.236-7.454 15.186-11.445 15.034-12.12 41.441-25.432 61.5-31 13.97-3.878 32.53-4.528 43.478-1.524 10.39 2.85 19.98 7.976 27.192 14.535 6.386 5.807 12.043 14.376 12.523 18.969.281 2.69-.067 3.048-4.193 4.316-6.959 2.138-22.761 1.161-31.62-1.955-10.401-3.658-21.871-10.887-32.512-20.49-10.83-9.773-9.6-9.58-26.396-4.143-11.395 3.688-35.577 15.629-39.973 19.737-1.65 1.542-6.15 4.973-10 7.626-3.85 2.652-7.34 5.106-7.754 5.453-.415.347 4.31-.173 10.5-1.155s18.454-2.068 27.254-2.412c14.032-.55 17.292-.362 26.5 1.52 23.402 4.787 35.866 9.469 49.688 18.666 10.898 7.25 26.843 23.04 30.838 30.535 1.635 3.068 4.184 7.557 5.663 9.974 6.508 10.634 10.754 33.575 8.896 48.063-4.865 37.937-30.834 65.982-72.086 77.848-5.5 1.582-11.442 2.304-22.286 2.707-16.878.628-25.34-.295-47.29-5.158-11.072-2.453-14.274-2.888-12.42-1.685 1.372.89 3.439 2.52 4.591 3.62s3.628 2.87 5.5 3.935c1.873 1.065 6.629 4.353 10.568 7.306 20.428 15.314 54.118 21.396 84.144 15.19 20.82-4.304 46.052-17.853 54.203-29.105 2.932-4.046 2.99-4.073 2.99-1.371 0 8.712-8.228 27.557-16.232 37.173-14.445 17.355-33.534 25.072-55.32 22.365-13.095-1.628-23.399-5.409-41.128-15.092-3.398-1.857-6.498-3.057-6.888-2.668-.39.39-.144 2.724.546 5.187 1.566 5.592.013 15.857-2.962 19.579-1.099 1.375-2.616 3.87-3.37 5.546-1.456 3.228-6.131 7.619-10.542 9.9l-2.656 1.373-1.819-9.323c-1-5.127-1.501-10.375-1.112-11.66 1.417-4.688 6.756-16.383 8.26-18.093 2.926-3.328.337-2.919-10.213 1.614-13.363 5.74-20.135 7.09-31.88 6.35-16.134-1.014-29.522-7.318-41.774-19.667-8.666-8.735-14.321-17.665-20.076-31.697-2.206-5.38-4.926-11.065-6.043-12.635l-2.032-2.853-1.63 2.437c-6.516 9.741-8.816 11.85-19.13 17.533-6.8 3.747-27.826 6.883-29.373 4.38-.536-.866 2.034-6.448 5.822-12.647 3.724-6.092 16.5-18.454 21.951-21.24 5.943-3.037 13.118-5.293 16.881-5.307 3.644-.014 4.095-1.51 3.231-10.722-.682-7.285-.925-7.87-4.865-11.734-2.28-2.237-9.272-10.02-15.535-17.293l-11.388-13.226-3.112 2.852c-1.711 1.57-6.711 6.299-11.112 10.51-5.547 5.31-10.913 9.236-17.5 12.804-5.225 2.831-10.962 6.247-12.75 7.591-4.004 3.012-4.254 6.318-.656 8.676 3.651 2.392 6.124 8.667 7.31 18.545 1.017 8.47.414 15.07-1.43 15.634-.535.164-3.449-1.418-6.474-3.515-7.382-5.118-10.817-10.806-11.553-19.133-.796-9.002-1.291-11-2.727-11-.683 0-5.737 1.95-11.23 4.335-11.24 4.877-25.556 9.736-35.99 12.215-21.367 5.076-37.448 21.129-42.985 42.91-6.915 27.204 9.257 53.618 38.037 62.128 6.988 2.066 19.542 2.279 27.491.467 15.633-3.565 30.788-14.873 37.091-27.676 2.973-6.04 3.366-7.772 3.365-14.857 0-9.608-2.82-16.66-9.602-24.017-9.998-10.846-26.346-15.681-37.414-11.064-4.488 1.871-9.963 6.741-12.042 10.71-1.689 3.222-.84 4.147 5.311 5.792 5.711 1.526 7.644 4.58 7.02 11.085-.272 2.82-1.264 5.859-2.281 6.983-3.896 4.305-12.888 1.066-16.64-5.994-5.58-10.502 2.006-27.227 15.149-33.4 3.592-1.687 6.416-2.114 14-2.115 8.9 0 9.991.234 17.28 3.715 19.947 9.524 30.03 30.175 23.769 48.67-8.178 24.153-32.034 39.392-61.05 38.997-4.124-.056-9.3-.464-11.5-.905zm260.46-15.728c5.271-6.358 8.111-13.207 7.904-19.06-.101-2.855-.295-5.19-.43-5.19s-1.368 1.914-2.738 4.252-3.376 5.051-4.457 6.03c-1.717 1.553-1.651 1.143.518-3.24 1.366-2.76 2.69-7.16 2.944-9.78l.46-4.761-1.625 3c-.894 1.65-2.188 3.45-2.877 4-3.026 2.417-6.782 22.417-5.055 26.918.91 2.372 1.937 1.957 5.356-2.169zm77.324-18.723c16.981-3.598 34.38-17.193 42.583-33.272 3.543-6.944 2.738-7.782-3.067-3.193-6.433 5.085-13.683 8.786-25.104 12.814-24.09 8.497-43.414 9.635-70.154 4.134-12.117-2.494-11.955-2.506-6.682.509 2.4 1.371 5.63 3.56 7.178 4.862 3.9 3.283 25.507 12.253 32.606 13.537 13.069 2.364 14.213 2.395 22.64.61zm-101.75-9.063c6.533-1.684 21.512-8.617 23.317-10.792.95-1.144-1.288-1.467-13.61-1.964-22.093-.892-39.678-4.894-54.748-12.458-9.889-4.964-14.83-8.53-24.177-17.448-4.497-4.291-8.44-7.802-8.76-7.802-1.12 0 7.723 16.549 12.692 23.756 9.29 13.473 22.02 23.21 34.857 26.663 7.227 1.943 22.97 1.966 30.428.044zm-364.17-12.128c15.523-3.845 31.278-12.148 40.442-21.311 5.948-5.948 11.185-14.577 11.185-18.43 0-1.693-.673-1.366-4.25 2.059-5.313 5.09-12.31 10.116-25.75 18.5-9.295 5.8-20.37 11.97-19 10.586 2.158-2.18 22.632-17.551 31.97-24.002 13.38-9.243 12.532-8.57 11.76-9.343-1.01-1.01-19.729 5.597-28.2 9.956-11.09 5.706-20.188 14.498-25.434 24.582-2.252 4.33-4.095 8.374-4.095 8.988 0 1.16.654 1.07 11.373-1.586zm380.86-7.591c-1.165-1.24-4.73-3.791-7.924-5.669s-10.53-8.027-16.306-13.666c-9.844-9.61-11.192-10.559-21.58-15.173-12.336-5.48-37.284-19.086-41.92-22.862-4.48-3.65-13.266-9.375-14.386-9.375-1.31 0 5.005 18.595 8.564 25.212 4.04 7.515 15.335 19.004 25.006 25.439 17.5 11.644 38.975 17.937 62.24 18.24l8.425.11zm-489.62-6.334c1.712-6.82-1.615-18.74-7.01-25.124-2.81-3.325-12.26-9.493-16.55-10.801l-2.449-.747 2.746 3.264c1.511 1.795 3.634 5.116 4.718 7.38 1.616 3.374 1.652 3.667.202 1.625-.973-1.37-3.31-4.211-5.193-6.314-2.92-3.259-3.559-3.583-4.335-2.195-1.214 2.169.022 11.024 2.234 16 2.315 5.211 4.652 7.554 13.07 13.099 3.82 2.516 7.199 4.986 7.51 5.488 1.209 1.958 4.412.897 5.057-1.676zm-58.843-8.408c4.549-1.09 9.949-2.848 12-3.905 7.545-3.889 12.184-11.284 13.863-22.098l.7-4.5-6.246 6.337c-7.005 7.11-9.67 7.691-3.232.706 5.025-5.451 5.215-6.696.897-5.875-14.543 2.764-20.948 8.8-27.677 26.082-2.446 6.28-2.648 6.212 9.695 3.253m415.73-7.883c9.734-3.779 16.71-9.493 20.053-16.423 1.339-2.774 2.206-5.272 1.927-5.551-.28-.28-5.114 2.657-10.743 6.525-8.85 6.08-16.328 10.696-14.736 9.097.275-.277 3.875-3.289 8-6.693 7.557-6.238 14.642-13.766 13.772-14.636-.258-.259-4.408 1.283-9.22 3.426-7.06 3.143-9.65 4.93-13.402 9.243-2.558 2.94-6.113 6.64-7.9 8.222-1.788 1.582-3.25 3.405-3.25 4.05s-.9 1.946-2 2.887-2 2.23-2 2.862c0 2.004 10.934.317 19.5-3.009zm183.07-8.121c18.75-3.695 34.525-12.095 46.521-24.773 9.144-9.664 13.225-16.442 17.61-29.25 3.59-10.485 4.192-16.761 3.02-31.477-.942-11.801-6.97-27.63-15.044-39.5-7.632-11.22-25.859-26.5-37.95-31.812-13.446-5.908-29.716-8.629-51.725-8.65-28.12-.027-44.473 4.187-75.5 19.459-17.01 8.372-39.392 22.04-64.547 39.416-5.8 4.007-11.2 7.512-12 7.79-1.234.429-1.202.79.21 2.4.914 1.044 4.739 6.93 8.5 13.08 4.207 6.881 9.787 14.249 14.506 19.154l7.668 7.97 2.07-4.812c1.14-2.647 3.262-8.114 4.717-12.15 4.5-12.472 11.487-23.52 21.113-33.376 14.376-14.721 26.534-22.645 43.594-28.411 12.315-4.163 21.636-5.413 35.908-4.814 11.691.49 12.61.688 19.746 4.265 12.822 6.426 24.365 20.892 24.473 30.673.023 2.096.267 3.677.542 3.513s3.98-1.972 8.234-4.019c9.005-4.332 15.905-5.884 21.025-4.73 2.003.452 3.876.587 4.163.3s2.56.05 5.05.747c3.948 1.105 4.529 1.616 4.529 3.983 0 5.431-12.085 20.56-19.373 24.254l-2.873 1.455 3.373 2.092c4.035 2.502 9.1 7.726 10.998 11.343.756 1.44 2.332 4.365 3.502 6.5s2.43 5.282 2.8 6.995c.646 2.996.525 3.138-3.175 3.73-4.937.79-18.532-.756-24.291-2.762-8.04-2.799-8.346-2.55-9.262 7.51-.463 5.083-5.293 15.614-9.488 20.685l-2.711 3.278-5.201-7.788c-6.49-9.72-8.166-13.698-8.958-21.274-.344-3.297-.975-5.994-1.401-5.994s-2.95.967-5.607 2.15c-6.958 3.093-19.24 2.967-29.333-.3-10.425-3.374-10.503-4.827-.774-14.37 4.07-3.992 9.822-8.485 12.781-9.984l5.38-2.727-11.073-10.814c-8.338-8.142-12.03-11.062-14.944-11.818-7.435-1.928-22.832-3.175-29.678-2.404l-6.808.766 5.124 3.819c6.5 4.844 12.313 13.809 15.502 23.904 2.546 8.06 3.417 19.777 1.47 19.777-.561 0-2.699-1.023-4.75-2.273s-5.042-2.937-6.644-3.75c-7.927-4.019-20.586-19.337-20.586-24.91 0-3.572-2.774-12.81-4.09-13.623-1.56-.964-11.643 6.13-12.456 8.762-.389 1.262-2.437 5.275-4.55 8.917-2.317 3.992-5.022 10.945-6.808 17.5-1.63 5.983-3.376 11.986-3.882 13.343-.814 2.186-.452 2.802 3.184 5.42 2.256 1.625 4.657 3.73 5.335 4.68.678.948 3.828 3.185 7 4.969s8.467 5.142 11.767 7.462c19.742 13.876 49.423 25.937 75.324 30.608 11.804 2.128 14.05 2.261 16.119.952 2.194-1.388.492-4.228-9.865-16.464-10.001-11.814-13.078-16.893-13.078-21.584 0-4.001 1.969-4.674 7.5-2.561 5.92 2.26 13.344 10.535 16.28 18.145 2.608 6.756 4.342 16.227 3.536 19.31-.434 1.659.155 2.408 2.818 3.587 3.915 1.732 11.269 1.302 25.435-1.49zm17.496-124.31c-4.613-1.603-5.823-5.743-3.052-10.44l1.954-3.312-2.468-1.125c-2.337-1.065-14.3-.043-21.248 1.814-3.998 1.07-2.39-1.237 2.851-4.09 4.717-2.567 5.752-2.743 13.75-2.338 12.376.627 20.275 5.178 21.745 12.528.505 2.527.129 3.634-1.939 5.702-2.823 2.823-6.076 3.177-11.592 1.26zm-248.6 117.4c1.06-3.337-1.333-14.376-4.516-20.842-3.345-6.794-5.616-8.315-4.564-3.057.352 1.759.873 5.696 1.158 8.75l.518 5.553-1.855-5.5c-2.247-6.663-3.976-10-5.183-10-.496 0-.719 1.463-.495 3.25s.658 5.275.965 7.75c.467 3.754 1.484 5.454 6.137 10.25 3.068 3.163 5.95 5.75 6.405 5.75s1.098-.857 1.43-1.904m-299.61-8.523c5.897-2.988 14.725-10.824 13.828-12.275-.936-1.515-12.836-3.589-20.606-3.59-3.617-.001-8.416.661-10.664 1.472-3.783 1.364-18.798 10.77-18.18 11.388.151.15 4.773-.815 10.27-2.145 5.498-1.33 11.346-2.37 12.996-2.31 1.65.058-1.237.943-6.417 1.965-10.542 2.08-12.439 3.126-8.998 4.968 4.074 2.18 7.257 2.78 15.199 2.869 6.368.07 8.654-.356 12.573-2.341zm191.14-1.599c23.1-2.048 50.997-8.615 72.812-17.14 11.872-4.64 33.597-15.484 42.418-21.174 12.986-8.376 29.77-24.517 29.77-28.63 0-.994-.836-2.84-1.856-4.1-1.722-2.126-2.09-2.195-5.107-.945-1.788.74-9.616 5.616-17.394 10.835-15.797 10.598-37.042 21.284-57.643 28.995-53.886 20.17-99.982 23.323-150 10.26-15.912-4.154-25.82-7.64-45-15.833-23.082-9.86-21.757-9.704-17.61-2.066 4.391 8.083 8.689 21.83 8.926 28.549l.184 5.224 4 .479c2.2.263 9.625.711 16.5.995s23.3 1.423 36.5 2.53 26.7 2.162 30 2.342c14.427.786 42.933.615 53.5-.321zm-237.2-.83c1.432-.908-1.123-3.097-10.552-9.042-2.887-1.82-5.25-3.482-5.25-3.691 0-.893 10.761 3.962 14.75 6.654 2.393 1.614 4.58 2.935 4.859 2.935s-.948-2.731-2.728-6.07c-3.589-6.735-10.269-13.257-16.398-16.012-3.733-1.677-24.347-5.386-25.2-4.534-.757.756 8.874 15.575 13.375 20.581 4.744 5.276 8.631 7.832 13.842 9.1 4.196 1.022 11.747 1.066 13.303.078zm16.301-11.964c3.365-5.303 6.9-15.837 6.892-20.534-.01-4.175-1.6-9.861-4.76-16.986l-2.59-5.841-1.572 2.9c-.865 1.595-3.71 5.856-6.324 9.47-5.489 7.59-7.749 13.257-7.749 19.434 0 3.63.623 5.06 3.675 8.439 4.426 4.899 4.882 4.442 6.915-6.922l1.366-7.64-.532 7.895c-.293 4.342-1.125 9.613-1.849 11.713s-1.09 4.044-.813 4.32c1.1 1.101 4.53-1.818 7.342-6.249zm552.17-6.085c5.562-11.295 4.806-25.633-1.631-30.976-2.193-1.82-3.925 1.862-3.056 6.494.58 3.096.429 3.537-1.118 3.236-1.085-.211-2.219-1.854-2.88-4.173-.599-2.104-1.54-3.904-2.09-4s-2.04 1.85-3.312 4.325c-3.582 6.969-2.728 15.009 2.791 26.279 4.142 8.458 4.368 8.717 6.185 7.072 1.037-.938 3.337-4.654 5.111-8.257zm-337.83-2.139c10.132-1.13 35.878-6.833 41.553-9.205 3.217-1.345 1.68-1.464-19-1.473-17.705-.01-25.556-.462-36.837-2.13-19.658-2.905-44.28-8.505-58.663-13.34-27.572-9.271-63.845-30.369-87.997-51.184-10.296-8.873-11.544-9.438-15.174-6.875-5.588 3.947-19.682 10.287-34.825 15.668-1.604.57-.429 1.45 6 4.486 4.398 2.077 14.521 7.497 22.496 12.045 36.256 20.674 64.25 33.79 88.49 41.464 29.84 9.445 66.708 13.583 93.957 10.545zm375.55-16.483c0-3.028-7.493-15.747-10.734-18.219-3.218-2.454-12.258-5.206-17.206-5.238-2.424-.015-2.419 0 .75 3.103 6.861 6.707 2.634 7.263-8.56 1.125-3.437-1.885-6.25-3.138-6.25-2.785 0 1.156 12.258 17.002 14.343 18.541 5.784 4.27 8.122 4.916 17.907 4.958 8.096.035 9.75-.217 9.75-1.485zm-344.45-.543c24.035-3.343 37.348-13.67 44.814-34.765 2.81-7.938 3.07-9.755 3.102-21.665.04-14.629-1.699-21.806-7.988-33-10.42-18.549-26.46-29.914-48.04-34.043-6.458-1.236-29.084-3.194-40.938-3.544-8.393-.247 7.59-2.945 21.2-3.578 13.76-.64 20.186.099 31.97 3.677 22.767 6.914 40.205 25.47 46.98 49.988 2.46 8.906 2.448 29.871-.024 39-4.225 15.607-12.178 26.876-24.664 34.946-3.45 2.23-6.004 4.055-5.675 4.055s5.288-1.537 11.021-3.415c17.398-5.699 39.344-16.792 47.677-24.098 1.933-1.694 6.052-4.587 9.153-6.428 7.202-4.274 20.861-15.739 20.861-17.508 0-1.985-12.325-25.656-17.666-33.927-20.06-31.07-45.478-47.578-80.366-52.197-36.6-4.845-87.863 6.32-134.51 29.3-6.62 3.26-13.588 6.47-15.483 7.13l-3.445 1.201 7.482 3.685c5.654 2.784 9.567 5.775 16.013 12.242 10.611 10.645 15.951 20.517 21.917 40.515 2.297 7.7 5.262 15.86 6.589 18.134 3.954 6.776 11.626 12.897 20.412 16.286 7.061 2.723 26.97 7.343 36.052 8.366 7.599.855 26.26.657 33.55-.356zm-.545-12.425c-.683-.822-4.55-3.322-8.595-5.555-6.229-3.438-7.916-4.969-11.024-10.005-2.019-3.27-3.846-5.945-4.06-5.945s-2.547 1.092-5.18 2.427c-6.012 3.046-14.57 5.252-23.786 6.13l-7.14.68 4.763-9.701c2.732-5.565 6.523-11.494 8.89-13.906 2.27-2.313 4.127-4.532 4.127-4.931 0-.4-2.21-2.858-4.911-5.463-2.702-2.604-6.357-7.435-8.123-10.736-1.766-3.3-4.092-7.462-5.17-9.25l-1.959-3.25 7.332.016c9.585.02 17.747 2.012 23.883 5.826l4.958 3.082 3.48-7.332c2.596-5.472 5.136-8.883 10.013-13.445 3.594-3.362 7.613-7.702 8.93-9.644l2.397-3.53 1.768 5.264c2.636 7.849 2.085 23.609-1.117 31.952-.487 1.269.895 1.648 8.146 2.237 4.802.39 10.564 1.392 12.803 2.228s5.63 2.108 7.536 2.828 3.624 1.787 3.819 2.37c.671 2.017-8.894 10.324-15.101 13.115-3.401 1.53-8.79 3.097-11.976 3.484-4.765.58-5.707 1.001-5.31 2.377 3.033 10.497 4.83 22.444 4.022 26.748-.703 3.749-1.522 4.211-3.416 1.93zm-1.964-20.118c-1.396-6.359-5.052-12.096-9.859-15.472-6.152-4.32-7.833-4.421-4.17-.25 3.435 3.913 6.004 9.102 5.966 12.053-.015 1.154-.563.687-1.556-1.327-1.55-3.14-8.094-10.12-8.74-9.323-.193.238-.08 3.422.248 7.076.562 6.237.901 6.971 5.544 12 2.72 2.946 6.397 6.14 8.171 7.096 1.775.958 3.593 2.308 4.041 3 1.325 2.048 1.594-9.212.355-14.854zm-39.719 2.133c8.487-1.798 12.834-4.432 16.778-10.165 4.627-6.725 3.49-7.889-4.816-4.925-4.807 1.715-6.067 1.932-4.325.746 4.288-2.922 8.041-6.321 8.041-7.283 0-.977-2.156-.634-10.647 1.693-4.91 1.346-5.47 1.87-12.206 11.413l-7.058 10.002 3.705-.017c2.038-.01 6.776-.668 10.527-1.463zm59.47-20.37c4.915-2.557 8.209-5.553 8.209-7.467 0-1.834-10.151-4.867-18.276-5.46-6.19-.453-7.337-.211-13.25 2.79-7.73 3.924-8.748 6.555-2.154 5.566 2.376-.356 5.414-.23 6.75.279l2.43.927-2.5.594c-1.375.326-4.525.712-7 .857l-4.5.264 3.5 2.295c3.154 2.068 4.44 2.26 13 1.94 7.397-.275 10.45-.848 13.792-2.586zm-46.436-4.84c.38-.378-1.233-2.669-3.583-5.09l-4.273-4.4 3.987 1.637c2.192.901 5.003 2.594 6.246 3.761 2.88 2.707 3.463 2.076 2.225-2.408-1.414-5.122-4.428-8.508-10.156-11.41-5.16-2.615-19.257-5.855-20.942-4.814-1.305.807 4.526 11.037 8.996 15.783 5.358 5.69 14.948 9.494 17.5 6.942zm17.864-7.272c6.478-5.702 9.223-12.416 9.255-22.634.017-5.518-.422-8.636-1.38-9.79-1.28-1.543-1.995-1.057-8 5.44-8.4 9.086-11.1 13.922-11.08 19.853.03 8.991 3.597 9.398 7.48.855 1.685-3.71 2.407-4.589 2.448-2.98.07 2.801-2.45 9.016-4.636 11.431-3.248 3.59 1.24 1.938 5.913-2.175zm83.78 12.256c-6.524-2.385-8.115-10.332-3.077-15.371 1.763-1.762 3.977-2.923 5.577-2.923 6.008 0 10.454 8.48 7.42 14.15-.857 1.602-6.868 5.125-8.138 4.77a51 51 0 0 1-1.782-.627zm205.5 50.6c5.119-1.4 13.77-9.982 13.312-13.204-.486-3.417-5.44-3.598-6.963-.255-.643 1.41-1.772 2.565-2.509 2.565-3.13 0-.504-5.346 3.69-7.515 1.634-.845 2.97-1.912 2.97-2.372s-4.04-1.066-8.98-1.347c-8.07-.46-9.462-.27-13.702 1.877-2.595 1.314-4.966 2.72-5.268 3.123-.302.404-3.081 2.859-6.175 5.456-5.658 4.747-7.662 8.174-5.546 9.481 1.852 1.145 13.73 3.065 19.671 3.18 3.025.059 7.3-.386 9.5-.988zm-54.794-14.454c-1.081-10.48-8.5-22.618-18.08-29.585-5.739-4.173-6.178-2.503-.767 2.914 4.893 4.898 8.628 11.415 9.746 17.006 1.015 5.076-.812 3.785-4.363-3.083-3.139-6.072-12.397-16.523-10.799-12.192.406 1.1 1.273 4.572 1.927 7.715.804 3.862 2.153 6.742 4.16 8.879 3.356 3.574 16.5 13.768 17.86 13.852.49.03.632-2.448.316-5.506zm-314.99.567c-.767-1.096-4.78-4.881-8.917-8.41-7.073-6.036-28.822-31.754-40.105-47.424-2.643-3.67-6.693-8.634-9-11.03l-4.195-4.358 4.422 2.216c6.255 3.134 29.034 27.194 43.411 45.853 5.517 7.16 5.666 7.268 5.666 4.144 0-5.145-2.869-14.873-6.93-23.498-7.253-15.406-17.877-26.572-31.53-33.14-10.643-5.12-11.923-5.15-21.107-.485-4.363 2.216-10.07 4.935-12.682 6.042-2.613 1.106-4.75 2.23-4.75 2.496s3.858 6.405 8.573 13.642c12.753 19.573 26.186 32.118 44.427 41.489 5.505 2.828 31.787 14.152 33.307 14.351.444.058.178-.791-.59-1.888zm380.06-11.846c1.418-.9-.398-2.934-4.523-5.068-1.238-.64-2.25-1.822-2.25-2.628 0-2.673 3.859-1.516 6.501 1.948 2.98 3.908 4.588 4.769 6.59 3.53 1.933-1.198-8.95-12.186-14.786-14.929-5.41-2.543-20.759-2.894-23.865-.545-1.067.807-1.387 1.482-.71 1.5.678.017 4.278 2.89 8 6.384 6.853 6.432 9.582 8.295 14.21 9.7 3.446 1.045 9.265 1.103 10.833.108zm19.046-2.516c.223-1.88.83-2.616 2-2.423 1.18.195 1.58-.303 1.342-1.668-.293-1.686-.123-1.767 1.275-.608.887.737 1.738 1.162 1.891.947.153-.216 1.072-1.66 2.043-3.21 1.414-2.258 2.044-2.584 3.176-1.645 2.163 1.795.172 4.51-5.83 7.952l-5.216 2.991 8-.034c12.921-.056 19.37-3.505 26.493-14.174 4.349-6.512 4.987-9.372 2.257-10.112-5.481-1.486-7.89-1.58-14.475-.56-9.81 1.516-13.924 3.83-18.94 10.656-2.321 3.16-5.212 6.869-6.423 8.244-1.713 1.945-2.003 3.018-1.308 4.834 1.148 2.994 3.303 2.305 3.716-1.19zm-12.16-12.645c.29 0 1.67.9 3.069 2 12.027 9.46 8.722-15.839-3.763-28.806-6.308-6.551-7.169-5.78-9.127 8.18-.915 6.518-1.876 12.666-2.137 13.662-.324 1.238.82 2.863 3.619 5.137 5.722 4.652 7.112 5.057 7.497 2.187.174-1.298.553-2.36.842-2.36zm-459.21-8.75c-1.509-2.613-6.52-10.259-11.138-16.993l-8.394-12.243-5.884 2.97c-3.236 1.634-6.098 3.318-6.36 3.743-.261.425 4.137 4.046 9.775 8.047 5.638 4 13.356 9.937 17.152 13.193 3.796 3.255 7.058 5.944 7.247 5.976.19.03-.89-2.08-2.398-4.693zm433.72 1.34 9.664-.039 1.208-6.026c.664-3.314 1.551-8.95 1.971-12.526s.928-7.146 1.129-7.937c.562-2.216-5.678-4.754-14.987-6.095-10.193-1.468-22.167-.19-34.436 3.677-10.516 3.315-16.086 6.136-27.212 13.787-4.95 3.404-11.025 7.439-13.5 8.967l-4.5 2.778 4-.605c15.324-2.316 21.012-2.757 29.445-2.285 10.379.58 19.547 2.683 25.055 5.746 2.722 1.513 4.5 1.796 8 1.27 2.475-.371 8.848-.692 14.164-.713zm-610.86-7.985c11.828-4.902 19.577-8.497 24.565-11.396l4.372-2.542-3.462-1.776c-4.125-2.116-19.933-6.222-31.78-8.255-13.25-2.274-25.063-2.944-36.758-2.086l-10.742.789 10 1.234c8.096 1 11.33 1.929 16.99 4.881 3.844 2.006 8.05 4.637 9.345 5.846 3.49 3.26 7.066 9.823 7.345 13.482.135 1.77.625 3.218 1.09 3.218.464 0 4.53-1.528 9.037-3.395zm100.36-5.962c17.578-7.531 26.912-12.144 27.941-13.81.978-1.582-12.736-14.565-18.762-17.762l-4.486-2.38-8.927 4.077c-12.755 5.826-27.227 11.927-39.927 16.833-6.249 2.414-10.352 4.488-9.5 4.802.825.305 6.168 2.164 11.874 4.133s13.356 5.119 17 7.001 7.373 3.431 8.287 3.442 8.34-2.84 16.5-6.337zm-93.895-37.127c6.052-4.55 12.567-12.191 15.747-18.471.963-1.9 1.977-6.288 2.255-9.75.456-5.685.323-6.294-1.381-6.28-2.25.017-4.4 1.225-11.177 6.286-4.304 3.213-5.977 5.533-10.814 15-3.148 6.16-4.953 10.563-4.01 9.785s5.36-5.62 9.818-10.762 8.302-9.151 8.544-8.91c.87.871-6.967 14.458-11.802 20.458-2.72 3.376-4.946 6.36-4.946 6.633 0 1.3 2.304.117 7.767-3.99zm110.81-5.899c17.413-5.99 35.744-14.424 41.94-19.293 5.168-4.061 10.785-12.924 13.456-21.23 2.013-6.259 2.244-8.544 1.781-17.61-.665-13.025-3.881-20.746-12.043-28.907-9.812-9.811-21.431-14.053-36.595-13.359-17.584.805-32.55 8.983-39.37 21.513-1.47 2.7-4.056 8.83-5.746 13.62-2.794 7.915-2.986 9.229-2.11 14.428a251 251 0 0 1 1.593 11.332c1.014 9.036 5.133 16.228 15.856 27.68 5.3 5.66 10.11 11.172 10.685 12.25 1.337 2.496 2.163 2.463 10.553-.424zm2.349-43.54c-3.895-3.895-4.048-9.957-.387-15.345 2.218-3.264 3.037-3.732 6.535-3.732 4.696 0 8.458 2.19 10.48 6.099 2.462 4.762 1.847 8.702-1.951 12.501-4.613 4.612-10.355 4.799-14.677.477zm600.88 19.723c3.606-3.606-.55-9.719-11.446-16.83-8.97-5.856-18.494-9.714-26.928-10.909-6.138-.869-9.07-.763-17.427.631l-3.5.584 4.5 1.275c15.11 4.283 19.663 5.733 26.452 8.43 7.895 3.137 16.098 7.802 15.235 8.665-.276.276-1.781-.155-3.345-.957-5.506-2.826-32.304-10.731-36.11-10.652-5.766.12 20.714 14.488 33.865 18.374 9.158 2.706 16.816 3.275 18.702 1.39zm-479.76-48.8c2.327-6.6 4.446-12 4.708-12 .787 0-.79 8.862-2.37 13.333-.811 2.292-1.875 5.967-2.365 8.167l-.89 4 2.795-3.107c1.538-1.708 4.251-6.883 6.03-11.5 2.786-7.232 3.171-9.308 2.785-15.007-.246-3.637-.745-7.093-1.107-7.68-1.113-1.8-14.307 12.98-15.535 17.4-1.688 6.079-.991 20.068.94 18.875.427-.265 2.681-5.88 5.008-12.48zm72.49-12.87c21.332-5.896 26.655-6.616 48.969-6.623 21.46-.01 19.86-.274 39 6.53 2.75.977 6.256 2.057 7.79 2.4 2.77.618 2.78.602 1.349-2.157-4.29-8.265-18.786-19.438-30.45-23.468-9.265-3.201-26.57-3.246-36.323-.093-9.505 3.072-23.1 10.145-32.366 16.839-4.4 3.178-9.526 6.828-11.39 8.11-4.597 3.162-2.872 2.964 13.42-1.538zm-442.92 323.62c-7.652-4.15-14.994-10.812-18.318-16.62-1.459-2.549-2.777-4.801-2.93-5.006-.152-.204-1.702 1.053-3.444 2.795-6.228 6.228-17.526 10.048-29.782 10.07-4.251.01-4.342-.06-3.687-2.743 2.282-9.348 10.368-21.608 17.276-26.19l4.23-2.807-6.113-2.229c-8.137-2.967-13.776-8.339-18.244-17.38-4.35-8.804-4.497-10.085-1.06-9.223 1.398.351 6.795 1.041 11.993 1.533 9.386.888 18.538 3.994 22.6 7.67 1.56 1.412 1.782 1.082 2.893-4.297.661-3.205 2.163-7.69 3.336-9.966 2.096-4.065 17.316-21.361 18.798-21.361.416 0 1.674 2.972 2.796 6.605 2.72 8.807 2.747 20.513.064 27.574-1.087 2.861-1.792 5.386-1.567 5.61s2.08-.141 4.121-.815c5.095-1.682 14.67-.74 21.828 2.145 8.575 3.456 9.045 4.826 3.574 10.402-5.88 5.995-13.33 9.456-21.898 10.175l-6.769.568 3.133 4.656c5.255 7.809 9.634 23.642 8.161 29.509-.873 3.478-3.65 3.307-10.993-.675zm7.37-6.323c.026-5.147-2.93-13.65-6.657-19.157-3.055-4.513-11.113-11.275-13.436-11.275-.42 0 1.275 4.307 3.768 9.57 2.493 5.264 4.314 9.79 4.045 10.06-.494.493-5.973-8.18-9.238-14.623-1.595-3.148-1.847-3.296-2.548-1.5-1.274 3.263-1.02 11.318.47 14.884 1.827 4.37 4.903 7.175 11.614 10.59 3.027 1.54 6.625 3.708 7.997 4.819 2.885 2.336 3.96 1.426 3.985-3.368zm-49.63-7.016c8.162-2.106 13.069-4.976 16.179-9.464 2.863-4.132 6.874-13.95 5.699-13.95-.418 0-3.229 1.634-6.246 3.633l-5.487 3.634 3.993-4.175c3.081-3.222 3.68-4.368 2.626-5.02-1.594-.984-7.05.352-12.262 3.005-5.766 2.934-13.92 13.769-16.312 21.672-.606 2.003-.333 2.25 2.493 2.25 1.745 0 5.938-.714 9.317-1.586zm56.814-25.387c4.772-1.813 12.832-8.275 12.832-10.287 0-1.622-8.583-4.643-15.081-5.308-5.793-.594-7.073-.382-11.47 1.895-2.722 1.41-6.974 3.977-9.45 5.704l-4.499 3.14 7.5-.54c7.165-.514 6.808-.048-1.395 1.82-3.46.787-2.62 1.924 2.92 3.952 5.626 2.06 12.603 1.92 18.643-.376zm-40.168-4.387c0-.197-2.475-2.001-5.5-4.01s-5.5-3.88-5.5-4.158c0-.626 8.328 3.68 12.783 6.607l3.283 2.158-1.248-2.87c-6.045-13.904-12.927-18.442-30.068-19.826-8.504-.687-8.785-.468-6.113 4.757 4.561 8.917 12.252 14.617 22.408 16.608 4.781.937 9.955 1.319 9.955.734zm15.928-8.572c8.52-10.974 11.032-19.181 9.064-29.611-1.753-9.292-2.64-9.541-9.715-2.723-9.953 9.59-12.642 17.386-9.812 28.435 2.028 7.914 3.089 9.023 3.998 4.178.988-5.268 5.588-19.631 6.117-19.102.239.238-.916 5.568-2.567 11.844-1.65 6.275-3.003 12.062-3.006 12.86-.01 1.69.214 1.47 5.92-5.88zm-88.5-20.611c-1.69-.845-5.374-3.881-8.186-6.747l-5.114-5.211 6.398-16.498 11.22 6.749c6.17 3.711 11.195 7.198 11.164 7.748-.03.55-1.953 4.15-4.27 8-4.576 7.6-6.202 8.463-11.212 5.959zm150.23-12.287c-2.237-2.471-2.138-8.424.174-10.516 4.466-4.042 12.505-.607 12.505 5.345 0 6.04-8.686 9.583-12.678 5.171zm-143.96-13.134c-5.884-3.83-10.697-7.424-10.697-7.988s2.327-5.704 5.172-11.424l5.171-10.399 7.079 6.144c3.893 3.379 9.46 7.881 12.372 10.004s5.161 4.145 5 4.493c-1.343 2.887-11.443 16.132-12.302 16.132-.604 0-5.912-3.134-11.795-6.963zm18.719-19.155c-3.254-2.265-8.454-6.525-11.556-9.466l-5.64-5.348 4.431-7.784c6.463-11.35 5.817-11.094 13.9-5.522 9.27 6.39 20.873 15.291 21.265 16.311.627 1.63-12.264 15.857-14.4 15.893-1.146.02-4.746-1.818-8-4.083zm16.35-22.131c-13.825-9.55-19.992-14.767-18.982-16.057.514-.656 3.54-4.793 6.723-9.193 3.184-4.4 6.164-8.42 6.623-8.932.982-1.098 5.21 2.135 20.104 15.374l10.735 9.542-7.21 7.258c-3.965 3.992-7.926 7.258-8.801 7.258s-5.012-2.362-9.192-5.25zm23.234-16.407c-11.455-9.462-24.087-21.645-23.8-22.953.165-.748 3.624-4.733 7.687-8.856l7.386-7.495 5.614 4.908c3.087 2.7 9.77 9.107 14.852 14.238l9.238 9.33-7.738 7.685-7.739 7.687zm-99.354-2.795c-3.759-3.484-3.644-8.704.277-12.625 3.677-3.678 6.188-3.69 10.263-.048 2.59 2.314 3.197 3.598 3.112 6.582-.219 7.732-8.091 11.244-13.652 6.09zm107.72-25.166c-7.4-7.49-13.321-13.973-13.16-14.408.498-1.338 18.232-16.932 19.28-16.954 1.455-.031 24.327 23.716 26.048 27.045l1.475 2.852-8.625 7.541c-4.744 4.147-9.287 7.54-10.095 7.54-.809 0-7.524-6.127-14.923-13.617zm31.153-13.133c-3.29-3.713-9.252-9.832-13.25-13.598s-7.269-7.203-7.269-7.636c0-1.324 15.01-14.016 16.575-14.016 3.186 0 25.425 25.194 25.425 28.803 0 2.292-12.376 13.176-15 13.193-.275 0-3.191-3.034-6.481-6.746m-42.145-11c4.91-6.286 11.809-14.121 30.126-34.212 20.193-22.148 31.083-38.144 36.107-53.037 3.368-9.987 1.948-33.635-2.229-37.101-2.166-1.798-5.443.292-15.855 10.113-11.196 10.56-14.698 13.284-26.023 20.229-14.516 8.902-27.744 14.885-52.21 23.612l-11.032 3.935.847-3.644c1.35-5.808 1.029-16.33-.673-22.061-.863-2.904-1.425-5.386-1.25-5.515.928-.685 27.036-5.683 27.462-5.257.277.277.844 5.269 1.26 11.093.776 10.876 1.46 13.13 3.207 10.567.988-1.448.54-14.86-.666-20-.58-2.467-.376-2.574 8.23-4.329 4.854-.99 9.774-2.022 10.935-2.294 1.831-.429 2.2.08 2.78 3.829 1.924 12.437 5.226 14.152 4.326 2.247l-.552-7.293 5.168-1.169c2.842-.642 8.474-1.31 12.514-1.481 5.985-.255 7.792-.732 9.75-2.571 5.09-4.783 2.252-6.056-7.596-3.406-6.581 1.77-37.514 7.797-51.438 10.023-5.466.873-10.226 1.766-10.578 1.983s-7.996 2.027-16.985 4.021c-16.965 3.763-31.86 8.637-45.373 14.85-4.332 1.99-8.07 3.62-8.31 3.62-2.56 0 12.02-10.125 21.392-14.854 12.964-6.542 29.617-10.813 63.184-16.204 10.235-1.644 24.29-4.12 31.236-5.501 14.469-2.88 39.72-9.89 41.296-11.464 3.93-3.93-13.446-3.768-56.422.526-20.027 2.001-40.817 3.292-65.127 4.043l-20.627.637 2.406-8.308c1.323-4.57 2.92-12.598 3.548-17.842s1.453-9.9 1.833-10.346c.38-.447 5.924.208 12.322 1.455l11.63 2.267-.641 12.687c-.672 13.277.104 19.099 1.788 13.404.488-1.65 1.176-7.838 1.53-13.75.47-7.866.994-10.75 1.951-10.75.72 0 5.827.961 11.347 2.137l10.038 2.137v10.562c0 12.832 1.507 12.641 3.15-.399.62-4.916 1.249-9.085 1.399-9.265s3.913.49 8.362 1.49l8.09 1.819.03 7.009c.023 5.443.268 6.6 1.094 5.18.585-1.007 1.371-3.932 1.747-6.5.676-4.616.725-4.667 4.156-4.35 1.91.175 5.047 1.075 6.972 2 3.074 1.474 3.561 2.227 4 6.18.546 4.916 1.44 4.505 2.5-1.151.674-3.593.731-3.63 4.841-3.154 6.478.75 10.66 2.31 10.66 3.98 0 1.276 1.005 1.404 6.25.796 7.533-.873 10.986-1.993 8.75-2.839-4.252-1.607-61.147-15.028-78.5-18.516-60.23-12.109-89.785-15.156-113.5-11.705-6.326.92-12.4 1.875-13.5 2.12-1.1.247-.495-.242 1.346-1.084 6.526-2.988 25.825-7.258 38.033-8.415 29.105-2.76 55.607 1.621 123.62 20.438 6.6 1.825 13.8 3.628 16 4.005 4.383.751 35.98 8.388 38.15 9.22 3.844 1.475-.444-3.252-18.4-20.287-27.116-25.725-34.139-31.787-53.75-46.393-56.483-42.067-99.418-61.416-141.29-63.674-13.916-.75-13.696-1.137 2.241-3.942 7.484-1.317 10.263-1.38 17-.385 25.383 3.75 47.21 10.124 59.756 17.448 4.014 2.344 12.247 7.038 18.297 10.431 24.638 13.822 48.015 32.524 109.8 87.842 5.06 4.531 9.678 8.244 10.261 8.25 1.413.017 3.2-7.452 4.425-18.487 1.244-11.223 1.293-35.51.076-37.435-1.563-2.469-12.49 9.065-17.263 18.221-2.233 4.283-4.212 7.634-4.399 7.447-.612-.612 6.596-19.049 9.155-23.416 1.375-2.347 4.217-5.647 6.315-7.332 3.884-3.122 8.623-8.826 7.917-9.532-1.158-1.159-21.924 7.34-23.275 9.527-.343.555-1.549 1.504-2.68 2.11-2.05 1.097-2.05 1.088-.195-2.107 2.857-4.919 8.87-9.564 16.21-12.522 15.965-6.434 15.485-6.111 12.63-8.482-2.182-1.81-11.21-1.56-17.353.48-2.889.96-5.513 1.485-5.83 1.167-2.66-2.659 14.85-8.884 23.943-8.513 15.084.615 2.337-3.806-17.367-6.024l-15.369-1.73 6-1.32c13.271-2.921 32.853-1.188 40.25 3.562 1.908 1.225 2.25 1.232 2.25.044 0-.77-.7-1.982-1.557-2.693-1.765-1.465-3.387-5.03-7.415-16.29-3.2-8.948-2.902-8.793 5.972 3.115l6.5 8.722 16.285 8.158c19.163 9.6 21.927 11.556 27.101 19.175 4.52 6.656 9.961 11.821 16.467 15.634 5.291 3.1 23.146 9.7 23.982 8.864.308-.308-.143-1.633-1.003-2.945-1.43-2.184-1.422-2.386.097-2.386 2.599 0 6.37 4.42 7.103 8.323 1.385 7.386-4.044 15.495-9.49 14.172-1.398-.34-5.537-2.384-9.197-4.544-8.323-4.911-14.354-6.492-32.197-8.437-7.782-.849-17.976-2.238-22.655-3.088l-8.507-1.544-3.326-6.225c-1.829-3.423-4.178-7.334-5.22-8.69l-1.896-2.467-.022 2.29c-.012 1.26-.924 4.058-2.027 6.22-5.69 11.153-6.453 25.195-2.849 52.49 3.225 24.428 3.243 57.42.037 69-3.514 12.694-10.876 26.732-19.928 38-10.262 12.775-63.643 61.344-67.563 61.473-.445.015 1.212-2.56 3.682-5.723zm126.44-224.97c.615-4.33-10.277-8.209-14.816-5.275-1.138.736-.716.973 1.75.985 3.196.015 4.533 2.104 2.25 3.515-2.025 1.251-.902 2.39 2.75 2.788 6.401.699 7.728.368 8.066-2.012zm-70.737 211.7-13.618-14.133 10.442-10.442c10.36-10.361 10.467-10.433 13.687-9.37 7.002 2.31 27.159 20.45 28.932 26.036 1.275 4.018-3.136 7.956-22.112 19.738l-3.711 2.304zm42.977-12.383c-3.12-5.05-14.122-14.956-23.65-21.297l-8.388-5.583 2.468-2.287c3.433-3.182 10.513-14.347 10.513-16.58 0-5.58 22.473 1.899 35.8 11.913 2.914 2.189 6.7 5.888 8.416 8.221l3.12 4.242-1.826 3.391c-1.005 1.865-4.964 5.978-8.8 9.14-3.834 3.161-8.551 7.21-10.481 8.998s-3.86 3.25-4.288 3.25-1.726-1.534-2.885-3.409zm25.252-31.723c-10.996-9.717-23.834-16.452-36.248-19.016l-5.77-1.192 2.264-3.335c1.245-1.835 2.838-5.579 3.54-8.32 1.165-4.543 1.584-5.042 4.729-5.632 4.54-.851 18.909.29 26.855 2.132 11.918 2.764 23.629 10.066 24.817 15.473.785 3.577-1.745 9.639-6.741 16.147-1.952 2.544-4.062 5.581-4.687 6.75-.626 1.17-1.546 2.125-2.044 2.125-.499 0-3.52-2.31-6.715-5.132zm-657.55.567c-3.749-2.034-4.56-5.91-2.169-10.375 1.561-2.916 2.549-3.614 5.46-3.859 7.634-.641 11.663 7.075 6.874 13.164-2.364 3.005-5.911 3.378-10.165 1.07zm482.14-15.914a2213 2213 0 0 1-12.652-5.447c-4.4-1.912-9.803-3.387-13.75-3.756-3.576-.334-6.502-.95-6.502-1.369 0-1.837 31.29-12.949 36.462-12.949 2.876 0 4.476 3.536 5.224 11.544.678 7.258-.189 13.051-2.06 13.768-.725.278-3.75-.528-6.722-1.792zm195.6-11.73c-1.1-.63-2.45-1.72-3-2.421-.55-.702-3.597-2.826-6.77-4.72-8.472-5.056-17.773-7.06-32.977-7.109l-12.735-.04c.01 0 .66-1.8 1.453-4s1.461-7.21 1.485-11.135l.044-7.135 7.93-1.16c17.824-2.606 45.856 4.056 50.051 11.896 2.284 4.267.274 25.873-2.481 26.678-.55.16-1.9-.224-3-.853zm4.5-31.287c-.825-1.006-3.3-2.695-5.5-3.754a431 431 0 0 1-7.79-3.864c-5.379-2.752-18.215-4.222-31.933-3.657l-11.777.485v-5.423c0-2.982-.44-6.245-.979-7.25-.88-1.647-.09-2.047 8.006-4.048 7.791-1.925 10.81-2.153 22.728-1.723 16.3.59 20.645 1.697 23.211 5.915 3.097 5.093 6.192 16.096 5.85 20.798-.293 4.03-.427 4.215-1.816 2.521zm-240.87-14.663c-1.655-2.387-4.5-6.497-6.322-9.132-5.886-8.515-19.858-18.676-34.642-25.196l-7.517-3.316 6.923-.752c7.607-.827 29.132.701 44.336 3.148 5.252.845 9.725 1.712 9.94 1.927.622.623-1.79 16.18-3.973 25.63-1.184 5.123-2.761 9.338-3.868 10.34-1.781 1.612-2.01 1.488-4.877-2.649zm181.56-22.528c-.294-3.747-.683-7.672-.867-8.723-.266-1.529.668-2.201 4.668-3.362 5.444-1.58 29.096-2.26 33.705-.97 3.843 1.077 15.29 17.581 13.462 19.41-.214.213-1.645-.089-3.18-.672-1.534-.583-7.465-1.531-13.18-2.106-8.573-.863-12.241-.756-20.981.615-5.826.913-11.155 1.877-11.842 2.14-.896.344-1.402-1.45-1.784-6.332zm-51.35-4.932c-2.281-1.33-12.406-5.288-22.5-8.794-10.092-3.506-20.6-7.25-23.35-8.322s-5.839-2.25-6.865-2.62c-1.668-.6-1.456-1.118 2.01-4.907 2.13-2.33 5.38-6.602 7.222-9.491l3.347-5.254 5.031 4.254c2.767 2.34 6.33 5.379 7.919 6.754l2.888 2.5-1.901 5c-1.118 2.94-1.608 5.807-1.189 6.96.58 1.597 1.052 1.04 2.541-3 1.006-2.728 2.207-5.39 2.67-5.917.506-.575 2.729.84 5.584 3.554 2.61 2.481 7.796 7.125 11.527 10.32s7.455 7.109 8.276 8.696c.82 1.588 1.368 2.842 1.217 2.787s-2.143-1.19-4.426-2.52zm48.259-15.12c.06-3.168.172-6.513.25-7.433.225-2.655 6.467-4.065 17.872-4.035 10.38.027 10.522.059 13.717 3.156 1.776 1.721 4.252 4.951 5.504 7.178l2.276 4.05-9.863-.698c-8.927-.63-22.871.862-28.618 3.065-.913.35-1.217-1.064-1.138-5.283zm78.652-9.529c-.49-8.33-5.703-10.346-18.718-7.238-6.206 1.482-7.728 1.293-5.725-.71 2.966-2.967 1.48-3.708-15.317-7.64-3.99-.934-3.984-.937 2.002-1.04 7.658-.132 24.829 3.123 31.409 5.954 7.14 3.07 11.502 10.71 7.839 13.727-.96.79-1.306.079-1.49-3.053zm-196.65-1.25c-5.99-2.436-11.073-4.612-11.297-4.836s.987-2.472 2.691-4.997c3.339-4.947 10.996-20.695 10.996-22.614 0-1.287 1.99-.017 15.277 9.754l8.778 6.453-3.165 5.63c-5.615 9.986-9.322 15.13-10.874 15.084-.834-.024-6.417-2.037-12.406-4.473m115.63-4.074c.302-.5 1.068-5.762 1.702-11.695 1.726-16.144 1.674-16.085 7.909-8.888 3.268 3.773 6.29 6.267 8.063 6.656 3.28.72 11.088 9.848 11.088 12.96 0 .315-4.387.463-9.75.328-5.362-.134-11.958.159-14.656.65-2.932.536-4.685.531-4.356-.011zm-144.21-6.993c-6.31-2.489-11.564-4.617-11.676-4.73s2.71-4.924 6.27-10.693c3.562-5.77 7.826-13.303 9.478-16.741 1.651-3.438 3.208-6.25 3.46-6.25.25 0 4.98 3.011 10.508 6.692 11.7 7.79 11.45 6.616 4.448 20.808-5.724 11.602-8.185 15.507-9.751 15.47-.696-.016-6.428-2.066-12.737-4.555zm-29.1-11.84c-18.106-6.75-17.264-5.436-9.034-14.1 4.163-4.383 9.521-11.643 13.173-17.85l6.155-10.463 10.89 6.63c5.988 3.645 10.888 7.249 10.888 8.007 0 2.141-8.375 18.997-12.895 25.95-2.533 3.898-4.728 6.23-5.833 6.195-.975-.03-6.98-1.996-13.344-4.37zm-17.268-12.68c-.248-1.317-.972-5.32-1.608-8.894-2.6-14.607-12.893-29.391-26.552-38.138l-6-3.843 3.932-.01c5.29-.013 17.932 3.435 29.86 8.143 10.333 4.079 23.708 10.51 23.708 11.4 0 1.163-4.51 9.29-8.295 14.948-3.268 4.886-8.589 11.77-13.83 17.895-.42.493-.968-.182-1.216-1.5z"/></svg>